G75*
G70*
%OFA0B0*%
%FSLAX24Y24*%
%IPPOS*%
%LPD*%
%AMOC8*
5,1,8,0,0,1.08239X$1,22.5*
%
%ADD10C,0.0795*%
%ADD11R,0.0795X0.0795*%
%ADD12C,0.1497*%
%ADD13C,0.0680*%
%ADD14C,0.0880*%
D10*
X002600Y002720D03*
X003600Y002720D03*
X004600Y002720D03*
X005600Y002720D03*
X006600Y002720D03*
X007600Y002720D03*
X008600Y002720D03*
X009600Y002720D03*
X010600Y002720D03*
X011600Y002720D03*
X012600Y002720D03*
X013600Y002720D03*
X013600Y003720D03*
X012600Y003720D03*
X011600Y003720D03*
X010600Y004720D03*
X008600Y003720D03*
X007600Y003720D03*
X021600Y009220D03*
X021600Y010220D03*
X021600Y011220D03*
X021600Y012220D03*
X021600Y013220D03*
X021600Y014220D03*
X021600Y015220D03*
X021600Y016220D03*
X021600Y017220D03*
X021600Y018220D03*
X021600Y020220D03*
X021600Y021220D03*
X021600Y022220D03*
X021600Y023220D03*
X028600Y023220D03*
X028600Y022220D03*
X028600Y021220D03*
X028600Y020220D03*
X028600Y019220D03*
X028600Y018220D03*
X028600Y016220D03*
X028600Y015220D03*
X028600Y014220D03*
X028600Y013220D03*
X028600Y012220D03*
X028600Y011220D03*
X028600Y010220D03*
X028600Y009220D03*
X032600Y007220D03*
X035100Y007220D03*
X037600Y008220D03*
X034600Y010720D03*
X037600Y004720D03*
X035100Y003720D03*
X032600Y003720D03*
X044600Y003720D03*
X045600Y003720D03*
X048100Y002720D03*
X048100Y004720D03*
X048100Y007220D03*
X048100Y009220D03*
X045600Y008220D03*
X044600Y008220D03*
X048100Y011720D03*
X045600Y012720D03*
X044600Y012720D03*
X048100Y013720D03*
X047600Y019220D03*
X046600Y019220D03*
X045600Y019220D03*
X044600Y019220D03*
X043600Y019220D03*
X042600Y019220D03*
X041600Y019220D03*
X040600Y019220D03*
X038100Y019220D03*
X036100Y019220D03*
X035100Y019220D03*
X034100Y019220D03*
X033100Y019220D03*
X032100Y019220D03*
X032100Y024220D03*
X031100Y024220D03*
X033100Y024220D03*
X034100Y024220D03*
X035100Y024220D03*
X036100Y024220D03*
X037100Y024220D03*
X038100Y024220D03*
X040600Y024220D03*
X042600Y024220D03*
X043600Y024220D03*
X044600Y024220D03*
X045600Y024220D03*
X046600Y024220D03*
X050100Y024220D03*
X052100Y024220D03*
X053100Y024220D03*
X054100Y024220D03*
X055100Y024220D03*
X056100Y024220D03*
X056100Y019220D03*
X055100Y019220D03*
X054100Y019220D03*
X053100Y019220D03*
X052100Y019220D03*
X051100Y019220D03*
X050100Y019220D03*
X057100Y019220D03*
X046600Y030220D03*
X045600Y030220D03*
X044600Y030220D03*
X043600Y030220D03*
X042600Y030220D03*
X042600Y031220D03*
X043600Y031220D03*
X044600Y031220D03*
X045600Y031220D03*
X036100Y030220D03*
X035100Y030220D03*
X034100Y030220D03*
X033100Y030220D03*
X032100Y030220D03*
X032100Y031220D03*
X033100Y031220D03*
X034100Y031220D03*
X035100Y031220D03*
X021100Y032220D03*
X020100Y032220D03*
X019100Y032220D03*
X018100Y032220D03*
X017100Y032220D03*
X017100Y033220D03*
X018100Y033220D03*
X019100Y033220D03*
X020100Y033220D03*
X013600Y025720D03*
X013600Y024720D03*
X012600Y024720D03*
X011600Y024720D03*
X011600Y025720D03*
X012600Y025720D03*
X010600Y025720D03*
X010600Y024720D03*
X009600Y024720D03*
X008600Y024720D03*
X008600Y025720D03*
X007600Y025720D03*
X007600Y024720D03*
X006600Y024720D03*
X005600Y024720D03*
X004600Y024720D03*
X003600Y024720D03*
X002600Y024720D03*
X010600Y015220D03*
X011600Y014720D03*
X012600Y014720D03*
X013600Y014720D03*
X013600Y013720D03*
X012600Y013720D03*
X011600Y013720D03*
X010600Y013720D03*
X009600Y013720D03*
X008600Y013720D03*
X007600Y013720D03*
X006600Y013720D03*
X005600Y013720D03*
X004600Y013720D03*
X003600Y013720D03*
X002600Y013720D03*
X007600Y014720D03*
X008600Y014720D03*
X019600Y014220D03*
X019600Y013220D03*
D11*
X011360Y011720D03*
X009980Y011720D03*
X008600Y011720D03*
X007220Y011720D03*
X007220Y022720D03*
X008600Y022720D03*
X009980Y022720D03*
X011360Y022720D03*
X021100Y033220D03*
X011360Y033720D03*
X009980Y033720D03*
X008600Y033720D03*
X007220Y033720D03*
X031100Y019220D03*
X037100Y019220D03*
X041600Y024220D03*
X047600Y024220D03*
X051100Y024220D03*
X057100Y024220D03*
X046600Y031220D03*
X036100Y031220D03*
X049100Y013720D03*
X049100Y011720D03*
X049100Y009220D03*
X049100Y007220D03*
X049100Y004720D03*
X049100Y002720D03*
X043600Y003720D03*
X037600Y003720D03*
X035100Y004720D03*
X032600Y004720D03*
X037600Y007220D03*
X035100Y008220D03*
X032600Y008220D03*
X035600Y010720D03*
X043600Y012720D03*
X043600Y008220D03*
D12*
X054600Y007720D03*
X035100Y015220D03*
X054600Y030720D03*
X003600Y030720D03*
X003100Y007720D03*
D13*
X012400Y019520D03*
X019800Y024820D03*
X021200Y024220D03*
X022600Y024820D03*
X024200Y019620D03*
X029700Y016620D03*
X033300Y022520D03*
X038900Y024520D03*
X044800Y018320D03*
X049000Y017720D03*
X046400Y011120D03*
X039300Y009320D03*
X049500Y029820D03*
D14*
X047800Y030420D03*
X045700Y028220D03*
X043500Y028320D03*
X041600Y026720D03*
X044500Y026020D03*
X050700Y026020D03*
X053700Y028820D03*
X052000Y032120D03*
X049700Y034120D03*
X048700Y034720D03*
X047100Y033220D03*
X038700Y031820D03*
X027400Y027620D03*
X025000Y026520D03*
X029300Y024020D03*
X030300Y021520D03*
X035000Y022920D03*
X036000Y020820D03*
X034000Y017420D03*
X025000Y017320D03*
X016900Y012820D03*
X015000Y011920D03*
X022200Y008320D03*
X016900Y023220D03*
X016900Y025720D03*
X022200Y031320D03*
M02*
