G75*
G70*
%OFA0B0*%
%FSLAX24Y24*%
%IPPOS*%
%LPD*%
%AMOC8*
5,1,8,0,0,1.08239X$1,22.5*
%
%ADD10C,0.0715*%
%ADD11R,0.0715X0.0715*%
%ADD12C,0.0150*%
%ADD13C,0.0600*%
%ADD14C,0.0300*%
%ADD15C,0.0800*%
%ADD16C,0.0400*%
D10*
X002600Y002720D03*
X003600Y002720D03*
X004600Y002720D03*
X005600Y002720D03*
X006600Y002720D03*
X007600Y002720D03*
X008600Y002720D03*
X009600Y002720D03*
X010600Y002720D03*
X011600Y002720D03*
X012600Y002720D03*
X013600Y002720D03*
X013600Y003720D03*
X012600Y003720D03*
X011600Y003720D03*
X010600Y004720D03*
X008600Y003720D03*
X007600Y003720D03*
X021600Y009220D03*
X021600Y010220D03*
X021600Y011220D03*
X021600Y012220D03*
X021600Y013220D03*
X021600Y014220D03*
X021600Y015220D03*
X021600Y016220D03*
X021600Y017220D03*
X021600Y018220D03*
X021600Y020220D03*
X021600Y021220D03*
X021600Y022220D03*
X021600Y023220D03*
X028600Y023220D03*
X028600Y022220D03*
X028600Y021220D03*
X028600Y020220D03*
X028600Y019220D03*
X028600Y018220D03*
X028600Y016220D03*
X028600Y015220D03*
X028600Y014220D03*
X028600Y013220D03*
X028600Y012220D03*
X028600Y011220D03*
X028600Y010220D03*
X028600Y009220D03*
X032600Y007220D03*
X035100Y007220D03*
X037600Y008220D03*
X034600Y010720D03*
X037600Y004720D03*
X035100Y003720D03*
X032600Y003720D03*
X044600Y003720D03*
X045600Y003720D03*
X048100Y002720D03*
X048100Y004720D03*
X048100Y007220D03*
X048100Y009220D03*
X045600Y008220D03*
X044600Y008220D03*
X048100Y011720D03*
X045600Y012720D03*
X044600Y012720D03*
X048100Y013720D03*
X047600Y019220D03*
X046600Y019220D03*
X045600Y019220D03*
X044600Y019220D03*
X043600Y019220D03*
X042600Y019220D03*
X041600Y019220D03*
X040600Y019220D03*
X038100Y019220D03*
X036100Y019220D03*
X035100Y019220D03*
X034100Y019220D03*
X033100Y019220D03*
X032100Y019220D03*
X032100Y024220D03*
X031100Y024220D03*
X033100Y024220D03*
X034100Y024220D03*
X035100Y024220D03*
X036100Y024220D03*
X037100Y024220D03*
X038100Y024220D03*
X040600Y024220D03*
X042600Y024220D03*
X043600Y024220D03*
X044600Y024220D03*
X045600Y024220D03*
X046600Y024220D03*
X050100Y024220D03*
X052100Y024220D03*
X053100Y024220D03*
X054100Y024220D03*
X055100Y024220D03*
X056100Y024220D03*
X056100Y019220D03*
X055100Y019220D03*
X054100Y019220D03*
X053100Y019220D03*
X052100Y019220D03*
X051100Y019220D03*
X050100Y019220D03*
X057100Y019220D03*
X046600Y030220D03*
X045600Y030220D03*
X044600Y030220D03*
X043600Y030220D03*
X042600Y030220D03*
X042600Y031220D03*
X043600Y031220D03*
X044600Y031220D03*
X045600Y031220D03*
X036100Y030220D03*
X035100Y030220D03*
X034100Y030220D03*
X033100Y030220D03*
X032100Y030220D03*
X032100Y031220D03*
X033100Y031220D03*
X034100Y031220D03*
X035100Y031220D03*
X021100Y032220D03*
X020100Y032220D03*
X019100Y032220D03*
X018100Y032220D03*
X017100Y032220D03*
X017100Y033220D03*
X018100Y033220D03*
X019100Y033220D03*
X020100Y033220D03*
X013600Y025720D03*
X013600Y024720D03*
X012600Y024720D03*
X011600Y024720D03*
X011600Y025720D03*
X012600Y025720D03*
X010600Y025720D03*
X010600Y024720D03*
X009600Y024720D03*
X008600Y024720D03*
X008600Y025720D03*
X007600Y025720D03*
X007600Y024720D03*
X006600Y024720D03*
X005600Y024720D03*
X004600Y024720D03*
X003600Y024720D03*
X002600Y024720D03*
X010600Y015220D03*
X011600Y014720D03*
X012600Y014720D03*
X013600Y014720D03*
X013600Y013720D03*
X012600Y013720D03*
X011600Y013720D03*
X010600Y013720D03*
X009600Y013720D03*
X008600Y013720D03*
X007600Y013720D03*
X006600Y013720D03*
X005600Y013720D03*
X004600Y013720D03*
X003600Y013720D03*
X002600Y013720D03*
X007600Y014720D03*
X008600Y014720D03*
X019600Y014220D03*
X019600Y013220D03*
D11*
X011360Y011720D03*
X009980Y011720D03*
X008600Y011720D03*
X007220Y011720D03*
X007220Y022720D03*
X008600Y022720D03*
X009980Y022720D03*
X011360Y022720D03*
X021100Y033220D03*
X011360Y033720D03*
X009980Y033720D03*
X008600Y033720D03*
X007220Y033720D03*
X031100Y019220D03*
X037100Y019220D03*
X041600Y024220D03*
X047600Y024220D03*
X051100Y024220D03*
X057100Y024220D03*
X046600Y031220D03*
X036100Y031220D03*
X049100Y013720D03*
X049100Y011720D03*
X049100Y009220D03*
X049100Y007220D03*
X049100Y004720D03*
X049100Y002720D03*
X043600Y003720D03*
X037600Y003720D03*
X035100Y004720D03*
X032600Y004720D03*
X037600Y007220D03*
X035100Y008220D03*
X032600Y008220D03*
X035600Y010720D03*
X043600Y012720D03*
X043600Y008220D03*
D12*
X039300Y009320D02*
X042800Y012820D01*
X042800Y016420D01*
X044750Y018370D01*
X044800Y018320D01*
X044750Y018370D02*
X045600Y019220D01*
X045000Y019620D02*
X045000Y022520D01*
X046600Y024120D01*
X046600Y024220D01*
X045000Y019620D02*
X044600Y019220D01*
X046600Y019220D02*
X046600Y011320D01*
X046400Y011120D01*
X048100Y011720D02*
X048100Y012020D01*
X048900Y012820D01*
X048900Y013520D01*
X049100Y013720D01*
X049000Y017720D02*
X049300Y018020D01*
X049300Y029620D01*
X049500Y029820D01*
X056100Y024220D02*
X056100Y021220D01*
X054100Y019220D01*
X038900Y024520D02*
X038900Y024820D01*
X031700Y024820D01*
X031100Y024220D01*
X032100Y024220D02*
X032100Y022220D01*
X030300Y020420D01*
X030300Y014920D01*
X028600Y013220D01*
X029700Y016620D02*
X029700Y020120D01*
X028600Y021220D01*
X028600Y022220D02*
X028000Y022820D01*
X028000Y027120D01*
X032100Y031220D01*
X032100Y030220D02*
X028500Y026620D01*
X028500Y023320D01*
X028600Y023220D01*
X032300Y020720D02*
X034100Y022520D01*
X034100Y024220D01*
X033300Y024020D02*
X033300Y022520D01*
X033300Y024020D02*
X033100Y024220D01*
X032300Y020720D02*
X032300Y019420D01*
X032100Y019220D01*
X024200Y019620D02*
X023200Y020620D01*
X023200Y029220D01*
X021100Y031320D01*
X021100Y032220D01*
X020100Y032220D02*
X020100Y025320D01*
X021200Y024220D01*
X022400Y024620D02*
X022600Y024820D01*
X022400Y024620D02*
X022400Y020920D01*
X021700Y020220D01*
X021600Y020220D01*
X014200Y024120D02*
X014200Y013220D01*
X014150Y013170D01*
X014200Y013120D01*
X014200Y003320D01*
X013600Y002720D01*
X012600Y002720D02*
X012600Y003720D01*
X011600Y002720D02*
X012200Y002120D01*
X021000Y002120D01*
X021000Y011620D01*
X021600Y012220D01*
X021600Y013220D02*
X019600Y013220D01*
X019600Y014220D02*
X021600Y014220D01*
X014150Y013170D02*
X013600Y013720D01*
X012600Y013720D02*
X012600Y014720D01*
X010600Y015220D02*
X010600Y013720D01*
X008600Y013720D02*
X008600Y014720D01*
X007600Y014720D02*
X007600Y013720D01*
X004600Y013720D02*
X004600Y024720D01*
X007600Y024720D02*
X007600Y025720D01*
X008600Y025720D02*
X008600Y024720D01*
X010600Y024720D02*
X010600Y025720D01*
X011600Y024720D02*
X012100Y024220D01*
X012100Y019820D01*
X012400Y019520D01*
X014200Y024120D02*
X013600Y024720D01*
X012600Y024720D02*
X012600Y025720D01*
X019100Y025520D02*
X019100Y032220D01*
X019100Y025520D02*
X019800Y024820D01*
X048900Y009020D02*
X048900Y008320D01*
X048100Y007520D01*
X048100Y007220D01*
X048900Y009020D02*
X049100Y009220D01*
X049100Y004720D02*
X048100Y003720D01*
X048100Y002720D01*
X010600Y002720D02*
X010600Y004720D01*
X008600Y003720D02*
X008600Y002720D01*
X007600Y002720D02*
X007600Y003720D01*
D13*
X029700Y016620D03*
X024200Y019620D03*
X021200Y024220D03*
X022600Y024820D03*
X019800Y024820D03*
X012400Y019520D03*
X033300Y022520D03*
X038900Y024520D03*
X044800Y018320D03*
X049000Y017720D03*
X046400Y011120D03*
X039300Y009320D03*
X049500Y029820D03*
D14*
X048000Y030620D02*
X047800Y030420D01*
X048000Y030620D02*
X048000Y034120D01*
X043400Y034120D01*
X040500Y031220D01*
X040500Y030920D01*
X038300Y030920D01*
X038000Y031220D01*
X036100Y031220D01*
X036100Y030220D02*
X036100Y028720D01*
X034400Y028720D01*
X030200Y024520D01*
X030200Y021620D01*
X030300Y021520D01*
X029300Y024020D02*
X029600Y024320D01*
X029600Y024820D01*
X034100Y029320D01*
X035100Y029320D01*
X035100Y030220D01*
X033200Y031320D02*
X033200Y031520D01*
X033800Y032120D01*
X038700Y032120D01*
X038700Y031820D01*
X041100Y030920D02*
X042300Y032120D01*
X044600Y032120D01*
X044600Y031220D01*
X045600Y031220D02*
X045600Y031720D01*
X047100Y033220D01*
X049700Y034120D02*
X051100Y032720D01*
X051100Y026920D01*
X052400Y025620D01*
X052400Y025220D01*
X053100Y024520D01*
X053100Y024220D01*
X054100Y024220D02*
X054100Y024820D01*
X052800Y026120D01*
X052800Y031320D01*
X052000Y032120D01*
X053700Y028820D02*
X055100Y027420D01*
X055100Y024220D01*
X052100Y024220D02*
X052100Y024620D01*
X050700Y026020D01*
X045700Y024320D02*
X045700Y028220D01*
X043500Y028320D02*
X043500Y024320D01*
X043600Y024220D01*
X044500Y024320D02*
X044500Y026020D01*
X044500Y024320D02*
X044600Y024220D01*
X045600Y024220D02*
X045700Y024320D01*
X042600Y024220D02*
X042500Y024320D01*
X042500Y029120D01*
X041700Y029920D01*
X041700Y030520D01*
X042400Y031220D01*
X042600Y031220D01*
X041100Y030920D02*
X041100Y027220D01*
X041600Y026720D01*
X035000Y022920D02*
X035000Y019320D01*
X035100Y019220D01*
X036000Y019320D02*
X036000Y020820D01*
X036000Y019320D02*
X036100Y019220D01*
X034100Y019220D02*
X034000Y019120D01*
X034000Y017420D01*
X033000Y019120D02*
X033000Y012420D01*
X028900Y008320D01*
X027400Y008320D01*
X027400Y027620D01*
X025000Y026520D02*
X025000Y017320D01*
X033000Y019120D02*
X033100Y019220D01*
X025900Y012020D02*
X025900Y030720D01*
X021900Y034720D01*
X018100Y034720D01*
X018100Y033220D01*
X017100Y033220D02*
X016900Y033220D01*
X016000Y032320D01*
X016000Y012920D01*
X015000Y011920D01*
X022200Y008320D02*
X025900Y012020D01*
X016900Y023220D02*
X018100Y024420D01*
X018100Y032220D01*
X017100Y032220D02*
X017100Y025920D01*
X016900Y025720D01*
X022200Y031320D02*
X022000Y031520D01*
X022000Y033720D01*
X021600Y034120D01*
X020100Y034120D01*
X020100Y033220D01*
X033100Y031220D02*
X033200Y031320D01*
D15*
X038700Y031820D03*
X043500Y028320D03*
X045700Y028220D03*
X044500Y026020D03*
X041600Y026720D03*
X047800Y030420D03*
X052000Y032120D03*
X049700Y034120D03*
X048700Y034720D03*
X047100Y033220D03*
X053700Y028820D03*
X050700Y026020D03*
X036000Y020820D03*
X035000Y022920D03*
X030300Y021520D03*
X029300Y024020D03*
X025000Y026520D03*
X027400Y027620D03*
X022200Y031320D03*
X016900Y025720D03*
X016900Y023220D03*
X025000Y017320D03*
X016900Y012820D03*
X015000Y011920D03*
X022200Y008320D03*
X034000Y017420D03*
D16*
X037000Y019120D02*
X037000Y013620D01*
X034700Y011320D01*
X034700Y010820D01*
X034600Y010720D01*
X033000Y009120D01*
X033000Y008320D01*
X032900Y008220D01*
X032600Y008220D01*
X032900Y008220D02*
X033500Y007620D01*
X033500Y005620D01*
X032600Y004720D01*
X035100Y003720D02*
X037600Y003720D01*
X037700Y003820D01*
X042700Y003820D01*
X042700Y004320D01*
X045500Y007120D01*
X045600Y007120D01*
X045600Y003720D01*
X049100Y002720D02*
X050000Y003620D01*
X050000Y006320D01*
X049900Y006420D01*
X050000Y006520D01*
X050000Y010820D01*
X058000Y018820D01*
X058000Y023320D01*
X057100Y024220D01*
X048700Y019020D02*
X048700Y034720D01*
X046600Y030220D02*
X047700Y029120D01*
X047700Y024320D01*
X047600Y024220D01*
X041600Y024220D02*
X041600Y025120D01*
X040200Y025120D01*
X039700Y024620D01*
X039700Y024120D01*
X037200Y021620D01*
X037200Y019320D01*
X037100Y019220D01*
X037000Y019120D01*
X038100Y019220D02*
X038400Y019520D01*
X038500Y019420D01*
X038500Y008220D01*
X043600Y008220D01*
X045600Y008220D02*
X045600Y007120D01*
X045600Y008220D02*
X045600Y012720D01*
X048100Y013720D02*
X048200Y013820D01*
X048200Y018520D01*
X048700Y019020D01*
X040600Y021720D02*
X040600Y024220D01*
X040600Y021720D02*
X038400Y019520D01*
X049100Y011720D02*
X050000Y010820D01*
X049100Y007220D02*
X049900Y006420D01*
X037600Y007220D02*
X037600Y004720D01*
X037600Y007220D02*
X035100Y007220D01*
X037600Y008220D02*
X035600Y010220D01*
X035600Y010720D01*
X020700Y016620D02*
X020700Y021620D01*
X021300Y022220D01*
X021600Y022220D01*
X020700Y016620D02*
X016900Y012820D01*
X008600Y011720D02*
X008100Y012220D01*
X008100Y012320D01*
X007600Y012820D01*
X005600Y012820D01*
X005600Y002720D01*
X005600Y012820D02*
X005600Y013720D01*
X008600Y022720D02*
X008100Y023220D01*
X008100Y023320D01*
X007600Y023820D01*
X005600Y023820D01*
X005600Y024720D01*
X005500Y024820D01*
X005500Y025620D01*
X008100Y028220D01*
X008100Y033220D01*
X008600Y033720D01*
X005500Y025620D02*
X004200Y025620D01*
X003700Y025120D01*
X003700Y024820D01*
X003600Y024720D01*
M02*
