%
M48
M72
T01C0.0300
T02C0.0315
T03C0.0500
T04C0.1417
%
T01
X29700Y16620
X24200Y19620
X21200Y24220
X22600Y24820
X19800Y24820
X12400Y19520
X33300Y22520
X38900Y24520
X44800Y18320
X49000Y17720
X46400Y11120
X39300Y9320
X49500Y29820
T02
X2600Y2720
X3600Y2720
X4600Y2720
X5600Y2720
X6600Y2720
X7600Y2720
X8600Y2720
X9600Y2720
X10600Y2720
X11600Y2720
X12600Y2720
X13600Y2720
X13600Y3720
X12600Y3720
X11600Y3720
X10600Y4720
X8600Y3720
X7600Y3720
X7220Y11720
X8600Y11720
X9980Y11720
X11360Y11720
X11600Y13720
X12600Y13720
X13600Y13720
X13600Y14720
X12600Y14720
X11600Y14720
X10600Y15220
X8600Y14720
X7600Y14720
X7600Y13720
X6600Y13720
X5600Y13720
X4600Y13720
X3600Y13720
X2600Y13720
X8600Y13720
X9600Y13720
X10600Y13720
X19600Y13220
X19600Y14220
X21600Y14220
X21600Y13220
X21600Y12220
X21600Y11220
X21600Y10220
X21600Y9220
X28600Y9220
X28600Y10220
X28600Y11220
X28600Y12220
X28600Y13220
X28600Y14220
X28600Y15220
X28600Y16220
X28600Y18220
X28600Y19220
X28600Y20220
X28600Y21220
X28600Y22220
X28600Y23220
X31100Y24220
X32100Y24220
X33100Y24220
X34100Y24220
X35100Y24220
X36100Y24220
X37100Y24220
X38100Y24220
X40600Y24220
X41600Y24220
X42600Y24220
X43600Y24220
X44600Y24220
X45600Y24220
X46600Y24220
X47600Y24220
X50100Y24220
X51100Y24220
X52100Y24220
X53100Y24220
X54100Y24220
X55100Y24220
X56100Y24220
X57100Y24220
X57100Y19220
X56100Y19220
X55100Y19220
X54100Y19220
X53100Y19220
X52100Y19220
X51100Y19220
X50100Y19220
X47600Y19220
X46600Y19220
X45600Y19220
X44600Y19220
X43600Y19220
X42600Y19220
X41600Y19220
X40600Y19220
X38100Y19220
X37100Y19220
X36100Y19220
X35100Y19220
X34100Y19220
X33100Y19220
X32100Y19220
X31100Y19220
X21600Y18220
X21600Y17220
X21600Y16220
X21600Y15220
X21600Y20220
X21600Y21220
X21600Y22220
X21600Y23220
X13600Y24720
X13600Y25720
X12600Y25720
X11600Y25720
X11600Y24720
X12600Y24720
X10600Y24720
X10600Y25720
X9600Y24720
X8600Y24720
X8600Y25720
X7600Y25720
X7600Y24720
X6600Y24720
X5600Y24720
X4600Y24720
X3600Y24720
X2600Y24720
X7220Y22720
X8600Y22720
X9980Y22720
X11360Y22720
X17100Y32220
X18100Y32220
X19100Y32220
X20100Y32220
X21100Y32220
X21100Y33220
X20100Y33220
X19100Y33220
X18100Y33220
X17100Y33220
X11360Y33720
X9980Y33720
X8600Y33720
X7220Y33720
X32100Y31220
X33100Y31220
X34100Y31220
X35100Y31220
X36100Y31220
X36100Y30220
X35100Y30220
X34100Y30220
X33100Y30220
X32100Y30220
X42600Y30220
X43600Y30220
X44600Y30220
X45600Y30220
X46600Y30220
X46600Y31220
X45600Y31220
X44600Y31220
X43600Y31220
X42600Y31220
X48100Y13720
X49100Y13720
X49100Y11720
X48100Y11720
X45600Y12720
X44600Y12720
X43600Y12720
X48100Y9220
X49100Y9220
X49100Y7220
X48100Y7220
X45600Y8220
X44600Y8220
X43600Y8220
X48100Y4720
X49100Y4720
X49100Y2720
X48100Y2720
X45600Y3720
X44600Y3720
X43600Y3720
X37600Y3720
X37600Y4720
X35100Y4720
X35100Y3720
X32600Y3720
X32600Y4720
X32600Y7220
X32600Y8220
X35100Y8220
X35100Y7220
X37600Y7220
X37600Y8220
X35600Y10720
X34600Y10720
T03
X34000Y17420
X36000Y20820
X35000Y22920
X30300Y21520
X29300Y24020
X25000Y26520
X27400Y27620
X22200Y31320
X16900Y25720
X16900Y23220
X25000Y17320
X16900Y12820
X15000Y11920
X22200Y8320
X44500Y26020
X41600Y26720
X43500Y28320
X45700Y28220
X47800Y30420
X52000Y32120
X49700Y34120
X48700Y34720
X47100Y33220
X53700Y28820
X50700Y26020
X38700Y31820
T04
X54600Y30720
X35100Y15220
X54600Y7720
X3100Y7720
X3600Y30720
M30
